<svg xmlns="http://www.w3.org/2000/svg" viewBox="0 0 162.03 167.41">
  <g id="Layer_2" data-name="Layer 2">
    <g id="Layer_2-2" data-name="Layer 2">
      <g>
        <path d="M161,94.47a6.07,6.07,0,0,0-2.28-.71c-2.26-.22-4.52-.51-6.79-.62-3.78-.19-3.55-.65-26.45-1.34-9.89-.3-14.94-.45-20.08-.26-3.69.14-7.31.38-13.2.77-5.6.37-10.25.72-13.52,1-3.09.3-7.25.75-12.18,1.38-7,.91-6.28.55-19.18,2.94-5.66,1-11.31,2.11-16.85,3.68a14,14,0,0,0-5.21,2.33,3.83,3.83,0,0,0-.13,6.12,7.67,7.67,0,0,0,2.62,1.42,38.7,38.7,0,0,0,6.88,1.56c6.52,1,13.09,1.55,19.66,2,1.41.1,4.31.43,4.35.44-1-.11,21.15,1.38,21.73,1.42l17.28,1.19c4.32.35,4.93.47,13.56,1.14,1.27.11,2.53.22,3.8.35,2.34.23,4.68.49,7,.75a2.65,2.65,0,0,1,.94.28c-4,.39-8.09.66-12.2,1-1.71.19-12.5,1.53-13.46,1.63-4.89.79-10.83,1.9-17.54,3.48-3.78.89-10,2.37-17.89,4.91-7.58,2.44-12.82,4.61-22.42,8.58-8.78,3.64-13.18,5.75-14.67,6.48-9.4,4.56-8.19,4.14-14.16,7.86A29.87,29.87,0,0,0,1.94,161a7.61,7.61,0,0,0-1.8,3.2,3.74,3.74,0,0,0,.15,2.47c.39.9.9,1,1.46.19.18-.26.32-.56.48-.83a10.73,10.73,0,0,1,2.32-2.87c3.52-3,7.61-5.13,11.71-7.19a300.84,300.84,0,0,1,27.92-12.06c.43-.17,15-5.32,16.29-5.56.94-.17,1.83-.55,2.75-.81,6.6-1.92,13.24-3.7,19.93-5.22,2.68-.61,5.36-1.15,8-1.67.92-.22,1.85-.39,2.78-.54l2.45-.46c.36-.07,8.47-1.42,9.5-1.54.62-.07,4.34-.57,5-.65,6.71-.75,13.43-1.37,20.18-1.53,4.16-.1,8.31-.17,12.46-.29a21.12,21.12,0,0,0,4.05-.37,3.2,3.2,0,0,0,2.62-2.62,3.23,3.23,0,0,0-2.14-3.15c-.37-.15-.75-.27-1.13-.39a86.12,86.12,0,0,0-9.23-2.1c-8.42-1.69-16.92-2.9-25.43-4.06l-11.88-1.24c-4.78-.47-8.63-.86-13.45-1.29-3.88-.34-9.11-.76-15.37-1.17-.36,0-10.67-.81-11.16-.85-1.95-.15-3.89-.32-5.84-.46q-8.18-.57-16.32-1.42a1.79,1.79,0,0,1-1.11-.37q11.51-2.35,24-4.29c14.91-2.28,26.49-3.34,35.6-4.16,7.68-.69,14.1-1.28,23-1.69,13.24-.61,22.13-.39,24.22-.33,6.12.17,11.29.51,15.15.82.07,1.28.22,1.53.9,1.52a2.37,2.37,0,0,0,1.9-1.45A1.8,1.8,0,0,0,161,94.47Z"/>
        <path d="M107.26,56.45a3.64,3.64,0,0,1,2.24.77,4.36,4.36,0,0,1,.64,5.83,5.59,5.59,0,0,1-1.86,1.74c-.76.45-1.54.87-2.32,1.29-1.52.8-3.13.29-4.24-1.34a4.83,4.83,0,0,1,0-4.81A7.41,7.41,0,0,1,107.26,56.45Z"/>
      </g>
      <path d="M121.77,73.6a8,8,0,0,0-2.72,1.2A126.34,126.34,0,0,0,106,84.52c-7,5.79-13.68,12-20.2,18.37-.49.47-9.86,9.75-10,9.74-.68.67-1.36,1.31-2,2-1.59,1.67-3.32,3.22-4.79,5-1.3,1.58-2.78,1.33-4.36,1-.26-.44,0-.76.13-1.06,1.21-2.47,2.43-4.93,3.63-7.41.24-.51,4-8.32,4.14-8.64,1.39-2.92,2.8-5.83,4.18-8.75q6.09-12.9,12.14-25.81Q96.5,52.8,104.13,36.66c4.69-9.85,9.57-19.6,15.18-29,.85-1.42,1.36-3.21,3.22-3.83.22-.07.38-.41.49-.65a2.51,2.51,0,0,0-.7-2.93,2.17,2.17,0,0,0-2.72.5,7.58,7.58,0,0,0-.68.82C116.38,5,114,8.47,111.55,12a394.45,394.45,0,0,0-23.91,40.1Q81.2,64.32,75.06,76.71C70.5,86,66,95.32,61.82,104.77c-.38.85-3.79,8.29-3.71,8.38l-7,16c-2.45,5.73-5,11.42-7.59,17.08-.34.74-4.48,8.8-4.4,8.8-.19.6-.39,1.11-.5,1.64a3.32,3.32,0,0,0,1.67,3.77,3.36,3.36,0,0,0,4-.66,6.89,6.89,0,0,0,.91-1.11c1.33-2,2.93-3.79,4.3-5.76,1-1.44,19-20.46,22.7-24.13.49-.48,7.67-7.77,7.9-8q5.39-5.61,10.78-11.2c.45-.46,8.25-8.65,8.57-8.6,3.56-3.71,7.19-7.34,11.06-10.73-1.91,3.35-3.86,6.64-5.67,10-.34.63-.66,1.27-1,1.91s-4.34,9.05-4.45,9.29a105,105,0,0,0-4.17,10.82c-.21.67-2.69,10.15-3.08,11.55-.17.59-1.13,7.47-1.15,8.25a11.12,11.12,0,0,0,.1,1.91c.27,1.77.89,3.4,2.7,4.09,1.62.63,3.29-.4,4.53-1.16a10.28,10.28,0,0,0,4.57-6.83,9.45,9.45,0,0,0,0-2.54l0,0a.53.53,0,0,1,0,.12,3.8,3.8,0,0,1-.37.7,5.23,5.23,0,0,1-.9,1.11c-2.74,2.52-3.1,2.27-4.61,3.38.07-.38.18-1,.38-1.69a34.45,34.45,0,0,1,1.32-3.4c.63-1.51,6.38-14.34,6.52-14.66,2.18-4.76,4.39-9.5,6.51-14.28.35-.79,3-6.4,3.1-6.62,1.51-3.35,3.17-6.63,4.85-9.9,2-3.83,4.19-7.54,5.86-11.53a8.72,8.72,0,0,0,.84-3.47A3.66,3.66,0,0,0,121.77,73.6Z"/>
    </g>
  </g>
</svg>
