<svg id="Layer_1" data-name="Layer 1" xmlns="http://www.w3.org/2000/svg" viewBox="0 0 516.43 167.1">
  <path d="M119.06,45.05a20.8,20.8,0,0,1,6.42-9.52,27.46,27.46,0,0,1,10.88-4.32,38.64,38.64,0,0,1,11.56-.13,36.65,36.65,0,0,1,5.7,1.2,55.11,55.11,0,0,1,5.32,2.15L169.11,39l5.08,2.23a24.8,24.8,0,0,0,5,1.56,20.42,20.42,0,0,0,5.17.32,52.62,52.62,0,0,0,5.35-.77,87.47,87.47,0,0,0,11-1.38,55.89,55.89,0,0,1-10.5,4.33,50.09,50.09,0,0,1-5.68.81,23.1,23.1,0,0,1-5.93-.37A27.09,27.09,0,0,1,173,44l-5.13-2.25-10.18-4.55a52,52,0,0,0-5-2,33.51,33.51,0,0,0-5.2-1.08,35.52,35.52,0,0,0-10.65.11c-.87.13-1.72.38-2.58.56s-1.69.48-2.49.84A21.37,21.37,0,0,0,127.2,38,23.3,23.3,0,0,0,119.06,45.05Z" fill="#fff"/>
  <path d="M380.57,47.42a23.33,23.33,0,0,0-8.15-7,21.14,21.14,0,0,0-4.6-2.45c-.8-.36-1.66-.55-2.49-.84s-1.7-.43-2.58-.56a35.52,35.52,0,0,0-10.65-.11,33.51,33.51,0,0,0-5.2,1.08,52,52,0,0,0-5,2l-10.18,4.55-5.13,2.25A27.09,27.09,0,0,1,321,48.08a23.1,23.1,0,0,1-5.93.37,50.42,50.42,0,0,1-5.68-.81,55.8,55.8,0,0,1-10.49-4.33,87.32,87.32,0,0,0,11,1.38,53,53,0,0,0,5.35.77,20.42,20.42,0,0,0,5.17-.32,24.8,24.8,0,0,0,5-1.56l5.08-2.23,10.17-4.55A55.11,55.11,0,0,1,346,34.65a36.53,36.53,0,0,1,5.71-1.2,38.57,38.57,0,0,1,11.55.13,27.46,27.46,0,0,1,10.88,4.32A20.9,20.9,0,0,1,380.57,47.42Z" fill="#fff"/>
  <g>
    <path d="M225.43,48.24l-.06-27v0a1.65,1.65,0,1,1,3.29,0v0l.07,25.35h17.21a1.65,1.65,0,0,1,0,3.3H227.08A1.66,1.66,0,0,1,225.43,48.24Z"/>
    <path d="M268,31.63l.2-2.77a1.39,1.39,0,0,1,1.34-1.54,1.54,1.54,0,0,1,1.54,1.54V48.73a1.54,1.54,0,0,1-3.08,0V46.22c-1.93,2.11-4.7,4.13-7.63,4.13-6,0-10.63-5.43-10.63-11.45s4.59-11.51,10.75-11.51C263.67,27.39,266.17,29.61,268,31.63Zm-7.49-.94c-4.29,0-7.47,3.95-7.47,8.21s3.16,8.16,7.33,8.16,7.74-4,7.74-8.29S264.77,30.69,260.55,30.69Z"/>
  </g>
  <path d="M118.69,43.23a20.9,20.9,0,0,1,6.43-9.52A27.48,27.48,0,0,1,136,29.39a38.64,38.64,0,0,1,11.56-.13,37.3,37.3,0,0,1,5.7,1.19,55.12,55.12,0,0,1,5.32,2.16l10.18,4.55,5.08,2.22a24.21,24.21,0,0,0,5,1.57,20.36,20.36,0,0,0,5.17.32,52.84,52.84,0,0,0,5.34-.77,89.11,89.11,0,0,0,11-1.38,55.8,55.8,0,0,1-10.49,4.33,52.82,52.82,0,0,1-5.68.81,23.07,23.07,0,0,1-5.93-.37,27.09,27.09,0,0,1-5.61-1.74l-5.13-2.25-10.19-4.55a51,51,0,0,0-5-2,32.26,32.26,0,0,0-5.19-1.08,35.92,35.92,0,0,0-10.66.1c-.87.14-1.71.39-2.57.57s-1.7.48-2.49.84a21.14,21.14,0,0,0-4.6,2.45A23.33,23.33,0,0,0,118.69,43.23Z" fill="#d83232"/>
  <path d="M380.2,45.6a23.39,23.39,0,0,0-8.14-7,21.61,21.61,0,0,0-4.6-2.45c-.8-.36-1.67-.55-2.49-.84s-1.71-.43-2.58-.57a35.85,35.85,0,0,0-10.65-.1,32.16,32.16,0,0,0-5.2,1.08,52,52,0,0,0-5,2l-10.18,4.55-5.13,2.25a27.17,27.17,0,0,1-5.62,1.74,23,23,0,0,1-5.92.37,52.11,52.11,0,0,1-5.68-.81,55.62,55.62,0,0,1-10.5-4.33,89.35,89.35,0,0,0,11,1.38,52.62,52.62,0,0,0,5.35.77,20.42,20.42,0,0,0,5.17-.32,24.6,24.6,0,0,0,5-1.57l5.07-2.22L340.32,35a55.12,55.12,0,0,1,5.32-2.16,37.55,37.55,0,0,1,5.7-1.19,38.64,38.64,0,0,1,11.56.13,27.52,27.52,0,0,1,10.88,4.32A20.8,20.8,0,0,1,380.2,45.6Z" fill="#d83232"/>
  <g>
    <path d="M54.4,149.49l-7.9-6a34.5,34.5,0,0,1-13.7-23.07c-2.56-19,10.13-35.54,29.33-38.13,7-.94,14.65-.2,18.88,1.87L91.11,92l2.07,15.36c-3.93-2.2-12-4.66-18.33-3.81-11.7,1.58-18.16,9.63-16.69,20.53.58,4.33,1.75,6.9,4,9.06a23,23,0,0,0,9.2.48,31.71,31.71,0,0,0,14.89-6.18L97,135.62l2,14.91c-3.76,2.78-11.69,5-17.76,5.84A35,35,0,0,1,54.4,149.49Zm32.78-7.42L85.53,129.8a32.82,32.82,0,0,1-14,5.38C58.89,136.88,49.27,130,47.57,118c-1.63-12.15,5.6-20.89,18.06-22.57a31.92,31.92,0,0,1,15.5,1.68l-1.6-11.87C75.44,83.61,68.59,83,62.34,83.87,44,86.34,32,102.05,34.41,120.18S52.47,150,70.87,147.54C77,146.71,83.73,144.49,87.18,142.07ZM56.55,124.24a24.5,24.5,0,0,1-.16-4.57l-.45.06-.07-.58.53-.07a19.66,19.66,0,0,1,.89-4.21l-.58.08-.13-.94.94-.13,0,.23L58,113l-.12-.89.63-.09.69-1.22-.07-.54.49-.07L60.5,109l-.09-.67.76-.1.64-.64-.13-1-1.57.21.2,1.47-1.52.2-.2-1.51,1.52-.21-.21-1.56-1.61.22-.22-1.61-1.56.21.2,1.52-1.51.2L55,104.22l1.47-.19-.21-1.57-1.56.21.2,1.48-1.52.2-.17-1.29a13.86,13.86,0,0,0-2.48,3.56l1.07-.15.15,1.12-1.16.16-.13-1a12,12,0,0,0-.73,1.69l.41,0,.12.94-.85.11a19.57,19.57,0,0,0-.67,4.14l.32,0,.08.63-.4,0a23.5,23.5,0,0,0,.2,3.2c1,7.37,4.72,12.1,10,14.57A18.29,18.29,0,0,1,56.55,124.24Zm-7.4-7.36.45-.07.06.45-.45.06Zm.77-5.11.76-.1.1.76-.76.1Zm.52,3.25.59-.08.07.58-.58.08Zm.49,3.25.44-.06.06.45-.44.06Zm.28-8.4.89-.12.13.94-.9.12Zm.48,3.25.76-.1.11.81-.76.1Zm.23-8.39,1.3-.18.18,1.34-1.3.18Zm.3,11.69.63-.09.08.58-.63.09Zm.23-8.45,1.12-.14.15,1.16-1.11.15Zm.3,11.69.45-.06.06.45-.45.06Zm.24-8.39.93-.13.13.94-.94.12Zm1.7-8.64-.12-.89a11.34,11.34,0,0,0-1.13,1.06Zm-1.18,11.89.76-.11.1.76-.75.1Zm.19-8.39,1.34-.19.18,1.3-1.34.18ZM54,117.76l.58-.08.09.63-.58.08Zm.23-8.39,1.12-.15.15,1.11-1.11.15Zm.3,11.64L55,121l.06.44-.45.07Zm.24-8.35.94-.13.12.9-.94.12Zm.53,3.25.76-.11.1.76-.76.1Zm.18-8.44,1.34-.18.18,1.34-1.34.18Zm.53,3.29,1.12-.15.15,1.12-1.12.15Zm1.66-8.63-.18-1.34-1.34.18.18,1.34Zm-.89,3.48,1.47-.19.2,1.47-1.48.2Zm.52,3.25,1.3-.17.17,1.29-1.29.18ZM59,100.23l-.16-1.16-.18,0-.93.49.11.81Zm.53,3.29-.18-1.38-1.34.18.18,1.38Zm1.25-1.89-.16-1.16-1.11.15.15,1.16Zm.57,3.24-.18-1.34-1.38.19.18,1.33Zm.71-5.19-.12-.89-.94.12.12.9ZM62.6,103l-.15-1.11-1.17.15.16,1.12Zm.53,3.3-.19-1.39-1.34.18.19,1.38Zm.18-8.48,0-.27-.71.14,0,.22Zm.53,3.29-.13-.94-.93.13.12.93Zm.58,3.28-.16-1.16-1.16.16.16,1.16Zm.67-5.18-.1-.71-.67.09.1.71Zm.57,3.29-.12-.94-.94.13.13.94Zm.34,2.14v-.09l-1.12.15.07.53Zm.29-7.27L66.24,97,65.8,97l0,.36Zm.62,3.23-.1-.71-.71.1.1.71Zm.53,3.25-.12-.89-.9.12.12.89Zm.71-5.19-.06-.44-.49.06.06.45Zm.53,3.3-.09-.67-.67.09L68,102Zm1.25-1.9-.07-.49-.49.07.07.49Zm.5,2.75,0-.18-.71.1,0,.31Zm1.32-1.36-.06-.49-.5.07.07.49Zm7.32,48L79,149l-.4.05.06.45Zm1.54-1.79-.08-.58-.4,0-.22.07.07.54Zm.33,3.18,0-.4-.4.05.05.4Zm8.65-58-8.27-6.38L83,98.82l8.21,5.89ZM82.48,149l-.08-.62-.63.08.08.63Zm.34,3.19-.06-.45-.45.06.06.45Zm1.19-5-.11-.81-.85.12.11.8Zm.29,3.19-.08-.63-.58.08.08.62Zm.34,3.18,0-.4-.41.05.06.4Zm.86-8.12-.07-.53-.94.44,0,.22Zm.34,3.18-.11-.8-.8.11.11.8Zm.34,3.19-.09-.63-.62.08.08.63Zm1.19-5-.13-1-1,.14.13,1Zm.34,3.22-.11-.85-.85.12.12.85Zm7.76-13.63-8.26-6.3,1.7,12.63,8.3,6.61Zm-7.42,16.81-.08-.62-.63.08.09.63Zm.81-8.15-.16-1.21-1.16.16.16,1.21Zm.34,3.18-.13-1-1,.13.13,1Zm.34,3.18-.11-.8-.8.11.1.8Zm1.2-4.93-.16-1.21-1.21.17.16,1.2Zm.34,3.18-.14-1-1,.14.14,1Zm.26,2.65,0-.27-.8.11.06.4Zm1.27-4.45-.16-1.16-1.21.17.16,1.16Zm.33,3.19-.13-1-1,.14.14,1Zm1.5-1.75-.17-1.21-1.16.16.17,1.21Zm1.81,1-.1-.76-1.21.17.15,1.11Z" fill="#d83232"/>
    <path d="M104.08,143l-5-64,25.41-2A26.3,26.3,0,0,1,144,83l7.5,6.46c5.67,4.89,8.14,9.26,8.63,15.55a19.9,19.9,0,0,1-7.51,16.62l17.94,25.57-18,1.41-15.36-8-7.4-12-1.61.13,1.69,21.64-14.91,1.17ZM118,140.73l-1.58-20.3,9.7-.76,12,19.49L153,138l-14.32-22c6.82-4.59,10.68-11.9,10.11-19.17-.95-11.54-11.13-19.29-24.2-18.26l-23.8,1.86,4.79,61.25Zm-3.91-50,11.54-.9c5.67-.3,10.26,3.54,10.69,9s-3.63,10.13-9.47,10.59l-11.23.87Zm2.77,4.17-.1-1.26-.81.07.1,1.25ZM124,108l-.2-2.6-.72.06-.09-1.13.72,0-.14-1.8-1,.08-.12-1.57-1.62.12-.12-1.61-1.62.12L119,98l-1.57.12-.12-1.57-1.08.08.14,1.8.9-.07.09,1.12-.9.07.7,9Zm-7.25-6.12.54,0,0,.59-.54,0ZM118.15,93l-.07-.9-.89.07.07.9Zm.45,3.4-.1-1.26-1.26.1.1,1.26Zm-.81,3.54,1.13-.08L119,101l-1.13.09Zm1.7,23.5-.11-1.48-1.21.09.11,1.48Zm7.19,7.53-1.53.12-.12-1.62-1.62.13-.12-1.58-1.58.13-.12-1.62-1.66.13-.13-1.57-1.39.11,1.33,17,8.35,6.8Zm-8.25-27.55.53,0,.05.53-.54,0Zm.25,23.52,1.13-.09.08,1.12-1.12.09Zm1.23-32.27-.07-.9-.9.07.07.9Zm.38,3.18-.09-1.21-1.26.1.1,1.21Zm-1.06,32.57.53,0,0,.54-.54,0Zm.31-29,1.12-.08.09,1.12-1.13.09Zm1.64,23.41-.09-1.25-1.31.1.1,1.26Zm-1.1-19.92.54,0,0,.54-.54,0Zm.3,23.51,1.12-.09.09,1.13-1.12.08Zm1.1-35.69-.07-.9-.9.07.07.9Zm.56,6.6-.1-1.26-1.26.1.1,1.26Zm-.3-3.23-.07-.9-.9.07.07.9Zm-.77,35.8.54,0,0,.54-.54,0Zm.26-29,1.17-.09.09,1.12-1.17.09Zm1.65,23.41-.1-1.26-1.21.1.1,1.25Zm-1.06-20,.54,0,0,.58-.54,0Zm.3,23.52,1.12-.09.09,1.17-1.12.08Zm1.11-35.47-.07-.9-.89.07.07.9Zm.19,6.45-.1-1.26-.89.07.09,1.26Zm.16-3.13-.07-.9-.89.07.07.9Zm-.92,35.63.59,0,0,.54-.58.05Zm2-5.53-.1-1.26-1.26.1.1,1.26Zm-.81,3.54,1.17-.09.08,1.12-1.16.09Zm.84-39,0-.63-.63,0,0,.63Zm.4,3.49-.07-.9-.89.07.07.9Zm-.65,39,.54,0,0,.54-.54,0Zm2.31-27c5-.39,8.35-4.13,8-9l-9.75.76.65,8.31Zm-.35,21.44-.1-1.21-1.26.1.1,1.21Zm-.81,3.59,1.12-.09.09,1.12-1.12.09ZM126.41,94l0-.63-.63,0,0,.63Zm.5,3.44-.07-.9-.9.07.07.9Zm-.76,38.82.53,0,0,.59-.54,0Zm1.7-44.14,0-.44-.45,0,0,.45Zm.35,3.32,0-.58-.58,0,0,.59Zm1.48-1.83,0-.45-.44,0,0,.45Zm.4,3.45,0-.63-.63,0,.05.62Zm1.43-2,0-.45-.45,0,0,.45Zm1.85,1.62,0-.45-.45,0,0,.44Zm18.64,27-.4,0-.06-.72-.25-.39-1.62.13-.12-1.57-1.62.12-.12-1.48-1.66.13-.1-1.3-1.71.13-.1-1.35-1.75.14-.12-1.57-1,.08-.47.35.82,1.25.58,0,.09,1.08.36.56,0-.27,1.35-.11.11,1.35-.77.06,2,3,.36,0,0,.63,10.07,15.43,11.51,6.29Zm-8-8.64-.07-1-.32,0-.63.64,0,.4Zm1.73-1.62-.1-1.26-.31,0-.87,1,0,.31Zm-1.05,6.86,1.22-.1.09,1.21-1.21.1Zm1.07-3.75-.08-1-.94.08.07,1Zm8.49,1.15-.11-1.44,1.34-.11.37-.57-.08-.94.68-.05a18.34,18.34,0,0,0,1.54-3.92l-.67,0-.06-.76.81-.06,0,.36a16.19,16.19,0,0,0,.41-5.1c-.5-6.42-2.78-10.17-10.57-16.7a18.2,18.2,0,0,1,2.55,8.34,17.73,17.73,0,0,1-.13,4.12l.45,0,.05.58-.59,0a21.77,21.77,0,0,1-1.08,4.1l.59,0,.08,1-1,.08,0-.18-.34.79.09,1.17-.72.06-.68,1.14,0,.62-.49,0-.9,1.29,0,.32,1.52-.12-.11-1.48,1.57-.13.12,1.57-1.48.12.12,1.48,1.48-.11-.11-1.44,1.57-.12.12,1.57-1.48.11.12,1.49,1.52-.12-.11-1.49,1.57-.12.12,1.57-1.48.12.12,1.53,1.52-.12-.11-1.49,1.53-.11.12,1.57-1.44.11.12,1.48Zm-6.77-2.82-.1-1.26-1.26.1.1,1.26Zm.06,3.11-.07-.94-1,.08.07.94Zm-1,3.7,1.08-.09.08,1.08-1.08.09Zm.31,2.87.72-.06.06.72-.72,0Zm2.35-8.18-.1-1.26-1.21.09.09,1.26Zm.15,3.06-.09-1-1.07.09.08,1Zm-1,3.51,1-.08.07,1-1,.08Zm.56-14.23,1.3-.1.1,1.3-1.3.1Zm0,16.94.5,0,0,.5-.5,0Zm2.06-7.79-.1-1.26-1.26.1.1,1.25Zm.06,3.06.13-.1-.08-1-1.12.09.08,1.08Zm-.65,3.22.85-.07.07.85-.86.07Zm0-20.11.8-.06.07.81-.81.06Zm.14,3.06,1-.08.08,1.08-1,.08Zm.11,3.11,1.3-.1.11,1.3-1.31.1Zm2.07,9.1-.1-1.26-1.26.1.1,1.26Zm-.84-20,.4,0,0,.41-.4,0Zm.15,3.1.54,0,0,.58-.54,0Zm.11,3.11.81-.06.06.81-.81.06Zm.1,19.74.71-.06.06.72-.72.06Zm0-16.68,1.08-.08.08,1.08-1.07.08Zm.11,3.11,1.35-.1.1,1.3-1.35.11Zm1.22-10.94.41,0,0,.41-.41,0Zm.16,3.16.58-.05.05.54-.59,0Zm.15,3.06.81-.07.06.81-.81.06Zm.11,3.11,1-.08.08,1-1,.08Zm.1,3.06,1.3-.1.1,1.3-1.3.1Zm1.23-10.89.4,0,0,.41-.4,0Zm.15,3.1.54,0,0,.58-.54,0Zm.11,3.11.8-.06.07.8-.81.07Zm.1,3.06,1.08-.08.08,1.08-1.08.08Zm1.38-7.78.36,0,0,.36-.36,0Zm.15,3.1.54,0,0,.54-.54,0Z" fill="#d83232"/>
    <path d="M169.75,138.27,167,74.15l15.44-.66,10.3,9,2.74,64.17-15.88.68ZM184,136.53l-2.62-61.37-12.69.54,2.62,61.38Zm.12-59.42-1-.86,0,.9Zm.42,3.32-.06-1.3-1.3.05.05,1.31Zm.23,3.33-.06-1.49-1.4.06.06,1.49Zm6.87,11-1.39.06-.07-1.49,1.4-.06-.07-1.66-1.49.06L190,90.07l-1.62.07-.07-1.62-1.62.07L186.58,87,185,87l-.06-1.62-1.44.06.07,1.67,1.35-.06.06,1.48-1.35.06.08,1.8,1.35-.06,0,1.35-1.35.06,2,46.26,8.1,7.09Zm-7.75-1.07,1.17,0,.05,1.17-1.17,0Zm.23,3.28,1,0,0,1-1,0Zm.23,3.33.81,0,0,.81-.81,0Zm.23,3.28.63,0,0,.63-.63,0Zm1.32-24.94-1.12-1,0,1Zm-1.09,28.22.45,0,0,.45-.45,0ZM186.24,82l-.06-1.3-1.35,0,.06,1.31Zm.23,3.33-.07-1.49-1.53.07.07,1.48Zm-1.34,3.39,1.48-.06.06,1.48-1.48.07Zm.23,3.28,1.35,0,0,1.3-1.35.06Zm.23,3.28,1.17-.05.05,1.17-1.17.05Zm.23,3.28,1,0,0,1-1,0Zm.23,3.29.81,0,0,.81-.81,0Zm.23,3.32.63,0,0,.63-.63,0Zm.23,3.28.45,0,0,.45-.45,0Zm1.18-28.22-1.17-1,0,1Zm.24,3.32-.06-1.3-1.31,0,.06,1.31Zm.23,3.33-.07-1.49-1.53.07.07,1.48Zm-1.35,3.39,1.49-.06.06,1.48-1.48.07Zm.23,3.24,1.31-.06.06,1.35-1.31.06Zm.24,3.32,1.12,0,0,1.12-1.13,0Zm.18,3.29,1,0,0,1-1,0Zm.23,3.28.81,0,0,.81-.81,0Zm.23,3.28.63,0,0,.63-.63,0Zm.23,3.33.45,0,0,.45h-.45Zm1.23-28.23v-.05l-1.12-1h0l0,1.08Zm.47,6.65-.07-1.48-1.53.06.07,1.48Zm-.24-3.33-.05-1.3-1.31,0,.06,1.31ZM188.5,91.8l1.49-.06.06,1.48-1.48.07Zm.19,3.24L190,95l.06,1.35-1.36.06Zm.23,3.28,1.17,0,0,1.17-1.17,0Zm.23,3.28,1,0,0,1-1,0Zm.23,3.33.81,0,0,.81-.81,0Zm.23,3.28.63,0,0,.63-.63,0Zm.23,3.28.45,0,0,.45-.45,0Zm1.23-28.18v-.14l-1-.9h-.13l0,1.08Zm.38,6.65-.07-1.48-1.44.06L190,90Zm-.15-3.33-.05-1.3-1.31.06.06,1.3Zm-.92,10,1.26,0,.05,1.3-1.26.06Zm.23,3.28,1.17-.05.05,1.17-1.17.05Zm.23,3.28,1,0,0,1-1,0Zm.23,3.28.81,0,0,.81-.81,0Zm.23,3.33.63,0,0,.63-.63,0Zm.23,3.28.45,0,0,.45-.45,0Z" fill="#d83232"/>
    <path d="M216.65,135.3l-6-5.91A34.17,34.17,0,0,1,200,104.87,33.72,33.72,0,0,1,233.51,71a34.78,34.78,0,0,1,24.71,10.37l7.44,7.38a33.49,33.49,0,0,1,10.43,24.62c.13,18.33-15,33.43-33.55,33.56C232.36,147,225.31,143.75,216.65,135.3Zm49.25-30.88a32.16,32.16,0,0,0-64.32.44c.12,17.84,14.27,31.8,32.37,31.94A32.09,32.09,0,0,0,265.9,104.42Zm-51.44.35c-.08-11.12,8.33-20,19.14-20,11,0,19.34,8.74,19.42,19.78s-8.34,20.06-19.15,20.13S214.62,116.08,214.46,104.77Zm8.11,7.56a21.47,21.47,0,0,1,.77-5.91h-.22v-.77h.5a21,21,0,0,1,1.68-3.8h-.81v-1.13h1.12v.63c.22-.36.44-.72.67-1H226V99h1.35l.14-.14V97.34h1.48V95.76h-1.53v1.48h-1.53V95.78h1.49l0-1.58h-1.57v1.49h-1.49V94.17l1.49,0V92.62h-1.58v1.49h-1.49V92.6h1.49V91h-1.58v1.49H221l0-.72-.76.91h.63V94h-1.3v-.45l-.58.86h.23v1.13h-.91a17.51,17.51,0,0,0-1.5,3.79h.67v.76h-.77v-.5a19.21,19.21,0,0,0-.64,5.14,18.27,18.27,0,0,0,8,15.49A19.45,19.45,0,0,1,222.57,112.33Zm-5.74-9.69h.59v.58h-.58Zm.07,3.24h.45v.45h-.45Zm1.29-8.21h.95v.94h-1Zm.12,3.29h.76v.76h-.77Zm.11,3.24H219v.59h-.59Zm.07,3.25h.45v.45h-.45ZM219.67,96h1.13v1.13h-1.12Zm.11,3.29h.95v.9h-.94Zm.11,3.24h.77v.77h-.76Zm.12,3.24h.58v.63H220Zm.11,3.24h.45v.45h-.45Zm1-14.69h1.36v1.31h-1.35Zm.16,3.24h1.08v1.12h-1.08Zm.11,3.29h.9v.9h-.9Zm.12,3.24h.72v.76h-.72Zm.06,3.25h.63V108h-.63Zm.11,3.28h.46v.45h-.45Zm.82-19.6v-.63l-.71.64Zm.26,4.87h1.3v1.3h-1.3Zm.11,3.24H224v1.13H222.9Zm.11,3.29H224v1H223Zm28.39,2.1a19.35,19.35,0,0,0-1.72-8,12.15,12.15,0,0,0-7.94-2.56c-9.91.07-17.61,8.09-17.54,18.41,0,4.28.82,7,2.64,9.35a17.63,17.63,0,0,0,7,1.35C243.73,123,251.46,114.84,251.39,104.52ZM225.58,90.91V89.56h-1.35v1.35Zm-1.22,6.54h1.31v1.31h-1.31Zm2.85-5V91.13h-1.35v1.35Zm-.15-3.29V88.06h-1l-.18.09v1ZM228.8,94V92.69h-1.35v1.35Zm-.16-3.28V89.63h-1.13v1.12Zm-.11-3.29v-.36l-.9.32v0Zm1.86,8.14V94.26H229v1.35Zm-.12-3.29V91.2H229.1v1.13Zm-.15-3.24v-1h-.9v1Zm1.74,4.85V92.76h-1.12v1.17Zm-.11-3.28v-1h-.94v.94Zm-.16-3.29v-.72h-.68v.72Zm1.54,7h-.81v.45Zm.21-2.17v-.9h-.94v.9Zm-.16-3.29v-.67h-.68v.68Zm1.2,4.86.54-.23v-.67H234v.9Zm.43-3.29v-.68h-.72v.67Zm-.16-3.29v-.45h-.45v.45Zm1.75,4.9v-.72h-.72v.72Zm-.16-3.29v-.49h-.45v.5Zm.62,51.08v-.4h-.41v.4Zm1-49.51v-.45h-.45v.45Zm.64,48v-.27l-.5.09v.18Zm0,3.11v-.41H238v.4Zm1-49.52v-.45H239V92Zm.6,48v-.49h-.49v.5ZM240,143v-.4h-.37V143Zm1.68-4.6v-.63H241v.63Zm0,3.06V141h-.54v.49Zm-.06,3.11v-.41h-.36v.4Zm1.68-4.65v-.59h-.63v.58Zm-.07,3.11v-.5h-.49v.49Zm1.68-4.61v-.72h-.72v.73Zm0,3.06v-.58h-.63v.59Zm-.07,3.11v-.49h-.5v.5Zm1.71-7.71v-.81h-.36c-.18,0-.31.14-.49.18v.63Zm0,3.11v-.72h-.72V140Zm-.06,3.06v-.59h-.58v.58Zm1.68-4.61v-.85h-.86v.86Zm0,3.11v-.76h-.77v.77Zm-.07,3.07V144h-.59v.63Zm.21-9.15v-.31l-.68.31Zm1.5,1.43V136h-.95v1Zm0,3.11v-.86h-.86V140Zm0,3.06v-.72h-.76v.72Zm1.66-7.67v-1.08H250.2v1.08Zm0,3.07v-1h-.95v.94Zm0,3.11v-.86h-.85v.85Zm-.07,2.43v-.09h-.72v.27Zm1.73-10.15v-1.17h-.36l-.81.55v.63Zm0,3.11v-1.08h-1.08V137Zm0,3.06v-.94h-.94v.95Zm0,3.11v-.85H252v.86Zm1.73-10.78v-1.12l-1.3,1v.18Zm-.07,3.07v-1.17h-1.17v1.18Zm0,3.11v-1.09h-1.09v1.08Zm0,3.06v-1h-1v.95ZM256.1,134v-1.31h-1.31V134Zm0,3.06v-1.17h-1.18V137Zm0,3.11V139H255v1.08Zm-.12,2.12H255v.4Zm.24-11.4v-.9l-1.12.91Zm1.54,1.57V131h-1.4v1.4Zm0,3.06v-1.26h-1.31v1.26Zm0,3.11v-1.17h-1.17v1.17Zm-.52,3.07.5-.28v-.76h-1.08v1Zm.64-12.35v-.9l-.94.91Zm6.3,6.26V134h1.58v1.26l1.2-1.31h-1.17v-1.44h1.44v1.13l1-1.31h-.81V131h1.31v.68l.67-1H269v-1.17h1.13l.49-.86V128h.36a34.29,34.29,0,0,0,1.69-3.75h-.41v-.85h.67a30.58,30.58,0,0,0,1.06-4h-.05v-.63h.18c.13-.86.21-1.72.3-2.57h-.45v-.54h.5c0-.77.08-1.53.07-2.3-.07-10-3.63-17.54-11.25-24.88a33.8,33.8,0,0,1,4.3,15.92,34.29,34.29,0,0,1-1.33,9.65h.49v.77H266a36.68,36.68,0,0,1-1.46,3.84h.72v1h-.95v-.54l-.54,1.09v1.08h-.59a33.36,33.36,0,0,1-3.48,5h1.13v1.44h-1.44v-1.08l-1,1.18h.95v1.53h-1.49v1.54l1.54,0v-1.48h1.53v1.53h-1.49v1.53H261v-1.49h1.53v1.54H261V134h1.53v-1.49h1.58V134h-1.53v1.53ZM259.3,134v-1.44h-1.4V134Zm0,3.07v-1.31H258v1.31Zm0,3.1v-1.21h-1.17v1.21Zm1.63-4.6V134.1h-1.39v1.44Zm0,3.06v-1.3h-1.31v1.3Zm.11-10.76h1.44v1.44H261Zm0-3.07h1.31v1.31H261Zm1.48,12.33v-1.44h-1.4v1.44Zm-.89,1.77h-.45v.32Zm1-9.47H264v1.44h-1.45Zm0-3.06h1.3v1.31h-1.3Zm0-3.11h1.22v1.22h-1.22Zm1,14h-1v.81Zm.5-6.26h1.48v1.44h-1.48Zm1.24,4.63h-1.21v1.17Zm-1.17-7.74h1.3v1.35h-1.31Zm0-3.06h1.22V126H264.2Zm0-3.11h1.13v1.13h-1.13Zm1.54,7.74h1.31v1.35h-1.31Zm0-3.07H267v1.22h-1.22Zm0-3.11h1.13v1.12h-1.12Zm.07-3.06h.95v1h-.94Zm0-3.11h.86v.9h-.86Zm1.47,10.85h1.22v1.22h-1.22Zm0-3.11h1.08v1.13H267.4Zm0-3.06h1v1h-1Zm.07-3.11h.86v.9h-.85Zm0-3.07h.76v.77h-.77Zm0-3.1h.63v.63h-.63Zm0-3.07h.54v.49h-.54Zm.07-3.11H268v.41h-.4ZM269,126.39h1.09v1.08H269Zm0-3.07h1v1h-1Zm0-3.11h.9v.85H269Zm.07-3.06h.77v.73h-.76Zm0-3.11h.63v.63h-.63Zm0-3.06h.54v.5h-.54Zm.07-3.11h.41v.4h-.41Zm1.38,17h1v1h-1Zm0-3.11h.9v.86h-.9Zm.07-3.06h.72v.72h-.73Zm0-3.11h.63v.63h-.63Zm0-3.07h.54v.5h-.54Zm.07-3.1h.4v.41h-.41Zm1.47,10.8H273V121h-.72Zm0-3.07h.63v.63h-.63Zm0-3.11h.54v.54h-.54Zm0-3.06h.4v.4h-.41Zm1.59,1.57h.4V113h-.4Z" fill="#d83232"/>
    <path d="M280.94,136.46l2.24-64.14,15.35.53,9.58,9.76-1.41,40.2,17.38.6,9.12,9.78-.51,14.54-42.62-1.48Zm41.55.33.41-11.8L295.62,124l1.73-49.6L284.75,74l-2.15,61.39Zm-26.64,1.32,0-.45-.46,0v.45Zm1.61,1.72v-.45H297v.45Zm7.62-17.08,1-27.82-1.49-.05.05-1.49,1.49,0,.05-1.66-1.57-.06.06-1.62-1.62,0,.05-1.62-1.62-.06.06-1.62-1.62-.06.05-1.62-1.35,0-.05,1.66,1.3,0-.05,1.48-1.31,0-.06,1.8,1.26,0-.05,1.35-1.26,0-.06,1.93,1.17,0,0,1.17-1.17,0-1,28.05Zm-6.86-16.29.45,0,0,.45-.45,0Zm0-3.28.63,0,0,.63-.63,0Zm0-3.29.81,0,0,.81-.81,0Zm0-3.34,1,0,0,1-1,0Zm.73,45,0-.45h-.45l0,.44Zm.2-3.24,0-.54-.58,0,0,.54ZM300,83.41l0-1.49-1.31,0,0,1.49Zm0-3.34.05-1.3-1.22,0,0,1.31Zm0-3.33v0l-1-1.07h-.05l0,1.08Zm-.24,31.4.45,0,0,.45-.45,0Zm0-3.29.63,0,0,.63-.63,0Zm0-3.33.81,0,0,.81-.81,0Zm0-3.29,1,0,0,1-1,0Zm0-3.29,1.17,0,0,1.17-1.17,0Zm0-3.29,1.35,0-.05,1.3-1.35,0Zm0-3.29,1.48,0-.05,1.49-1.48-.05Zm1.6-3.28.05-1.48-1.53-.06L300,85Zm-.9,58.15v-.45h-.45v.45Zm.93-61.48,0-1.31-1.35,0,0,1.3Zm-.77,58.2,0-.54-.54,0,0,.54Zm.79-61.54v-.13l-1-1h-.18l0,1.08Zm-.28,31.41h.45l0,.45h-.45Zm0-3.34.62,0,0,.63-.63,0Zm0-3.29.81,0,0,.81-.81,0Zm0-3.29,1,0,0,1-1,0Zm.07-3.28,1.13,0,0,1.12-1.12,0Zm0-3.34,1.31,0,0,1.35-1.31-.05Zm0-3.24,1.49,0-.05,1.49-1.49-.06Zm1.61-3.28,0-1.49-1.53,0-.05,1.49Zm-.91,58.15,0-.45h-.45l0,.45Zm.21-3.24v-.54l-.58,0,0,.54Zm.72-58.24.05-1.31-1.31-.05,0,1.31Zm-.52,55,0-.72-.72,0,0,.72Zm.55-58.39v-.18l-.87-.93h-.22l0,1.08Zm-.29,31.36.45,0v.45l-.45,0Zm0-3.29.63,0,0,.63-.63,0Zm0-3.29.81,0,0,.81-.81,0Zm0-3.33,1,0,0,1-1,0Zm0-3.29,1.17,0,0,1.17-1.17,0ZM303,95l1.35.05,0,1.35-1.35,0Zm.07-3.24,1.48,0-.05,1.48-1.48,0Zm1.6-3.28,0-1.49-1.53,0-.05,1.48Zm0-3.34,0-1.3-1.3,0-.05,1.31ZM304,143.35l0-.54-.54,0,0,.54Zm.2-3.19,0-.72-.72,0,0,.72Zm.55-58.39V81.5l-.83-.84h-.27l0,1.08Zm-.28,31.36h.45l0,.45h-.45Zm0-3.29.63,0,0,.63-.63,0Zm0-3.34.81,0,0,.81-.81,0Zm0-3.29,1,0,0,1-1,0Zm0-3.28,1.17,0,0,1.17-1.17,0Zm0-3.29,1.31,0L305.81,98l-1.3,0Zm1.67-6.53.06-1.48-1.54-.06-.05,1.49Zm0-3.33,0-1.31-1.3,0-.05,1.3Zm-.68,58.29v-.54l-.58,0,0,.54Zm.2-3.19,0-.72-.72,0,0,.72Zm.2-3.24,0-.81-.9,0,0,.81Zm.31-55.19v-.36l-.74-.75h-.36l0,1.08Zm1.05,60.11,0-.72-.72,0,0,.72Zm.2-3.19,0-.9-.9,0,0,.9Zm1.41,4.91,0-.72-.72,0,0,.72Zm.2-3.19,0-.9-.9,0,0,.9Zm.16-3.24,0-.9-1,0,0,.9Zm1.4,4.92,0-.9-.9,0,0,.9Zm.21-3.2,0-1.08-1.08,0,0,1.08Zm1.41,4.83,0-.81-.9,0,0,.81Zm.15-3.15,0-1-1,0,0,1Zm.2-3.19,0-1-1.22,0,0,1Zm1.41,4.91,0-1.08-1.09,0,0,1.08Zm.2-3.19,0-1.21-1.21,0-.05,1.22Zm1.37,4.74,0-.9-1,0,0,.9Zm.19-3.06.05-1.22-1.22,0,0,1.22Zm.16-3.29,0-1-1.22,0,0,1Zm1.45,5,0-1.21-1.21-.05,0,1.22Zm.16-3.28,0-1.22-1.21,0-.05,1.22Zm1.41,4.73,0-1-1.22,0,0,1Zm.15-3.06.05-1.21-1.22,0,0,1.21Zm.07-3.28,0-1-1.22-.05,0,1Zm1.54,5,0-1.22-1.21,0,0,1.22Zm.07-3.29,0-1.21-1.21-.05,0,1.22Zm1.5,4.74,0-1-1.22,0,0,1Zm.06-3.06,0-1.22-1.22,0,0,1.22Zm.12-3.29,0-1-1.21,0,0,1Zm1.49,5,0-1.21-1.21,0,0,1.22Zm.12-3.28,0-1.22-1.22,0,0,1.21Zm7.42-7.36-7.08-7.59-.43,12.15,7.08,7.73Zm-6,12.09,0-1-1.22,0,0,1Zm.11-3.06,0-1.21-1.21,0,0,1.21Zm1.61,1.73,0-1.22-1.21,0-.05,1.21Zm1.57,1.45,0-1-1.21,0,0,1Z" fill="#d83232"/>
    <path d="M336.35,138.54l4.72-64,15.32,1.13,9.19,10.12-3,40.11L380,127.17l8.74,10.13-1.07,14.51-42.54-3.14Zm41.5,1.93.87-11.77-27.22-2,3.65-49.51-12.58-.92-4.52,61.27Zm-26.67.3,0-.45-.45,0,0,.45Zm1.54,1.78,0-.45-.45,0,0,.45ZM361,125.77l2-27.76-1.48-.11.11-1.48,1.48.11.12-1.66-1.57-.12.12-1.62L360.21,93l.12-1.61-1.61-.12.12-1.62-1.62-.12.12-1.62-1.35-.1-.12,1.67,1.3.09-.11,1.48-1.3-.09-.13,1.8,1.25.09-.1,1.35-1.25-.1-.15,1.94,1.17.08-.08,1.17-1.17-.09-2.06,28Zm-6.79,18.52,0-.45-.45,0,0,.45Zm.33-3.23,0-.54-.58,0,0,.54Zm.22-31.83.45,0,0,.45-.45,0Zm.16-3.28.62,0,0,.63-.63,0Zm.15-3.29.81.06-.06.81-.81-.06Zm.15-3.33,1,.07-.07,1-1-.07Zm.53,46.74,0-.45-.44,0,0,.45Zm.29-3.27,0-.54-.54,0,0,.54Zm1.37-56.54.11-1.48-1.31-.1-.11,1.48ZM356.27,111l.45,0,0,.45-.45,0Zm1.3-28,.1-1.31-1.22-.08-.09,1.3Zm-1.15,24.75.63,0,0,.63-.63,0Zm.16-3.33.81.06-.06.81-.81-.06Zm1.15-24.75v0l-1-1.11h-.05l-.08,1.07Zm-1,21.47,1,.07-.07,1-1-.07Zm.15-3.29,1.17.09L358,99,356.8,99Zm.38,50,0-.45-.45,0,0,.44ZM357,94.5l1.35.1-.09,1.3-1.35-.1Zm.56,50.08,0-.54-.59,0,0,.54Zm-.4-53.37,1.48.11-.11,1.48-1.48-.11Zm.72,50.19.06-.72-.72-.05-.06.71Zm1-53.41.11-1.48-1.53-.11-.1,1.48Zm-1.19,24.71.45,0,0,.44-.45,0Zm1.35-28,.09-1.3-1.34-.1-.1,1.3Zm-1.19,24.71.63,0-.05.63-.63,0Zm.15-3.28.81.06-.06.8-.81-.06Zm1.19-24.76V81.2l-.91-1h-.18l-.08,1.08Zm-1,21.47,1,.07-.07,1-1-.07Zm.2-3.28,1.12.08-.08,1.12-1.12-.08Zm.15-3.33,1.31.09-.1,1.35-1.3-.1Zm.56,50.13,0-.54-.54,0,0,.54ZM358.68,93l1.49.11-.11,1.48-1.48-.11Zm.73,50.18,0-.72-.72,0-.05.72Zm1-53.4.11-1.48L359,88.14l-.11,1.48Zm-1.18,24.66.44,0,0,.45-.45,0Zm1.34-28,.09-1.3-1.3-.1-.1,1.3Zm-1.19,24.71.63,0-.05.63-.63,0Zm.15-3.29.81.06-.06.81-.81-.06Zm1.19-24.75,0-.18-.84-1-.22,0L359.6,83Zm-1,21.42,1,.07-.07,1-1-.07Zm.16-3.28,1.16.08-.08,1.17-1.17-.09Zm.15-3.29,1.35.1-.1,1.35-1.35-.1Zm.64,50.18,0-.54-.59,0,0,.54Zm-.45-53.42,1.48.11-.1,1.48-1.49-.11Zm.77,50.24.05-.72-.72,0,0,.72Zm.33-3.23.06-.81-.9-.06-.06.8Zm.63-50.22L362,90l-1.53-.11-.11,1.48Zm-1.19,24.66.45,0,0,.45-.45,0Zm1.34-28,.1-1.31-1.3-.09-.1,1.3Zm-1.18,24.71.62,0,0,.63-.63,0Zm.15-3.34.81.06-.06.81-.81-.06Zm1.19-24.7,0-.27-.79-.88-.27,0-.08,1.08Zm-1,21.42,1,.07-.07,1-1-.07Zm.15-3.29,1.17.09-.08,1.17-1.17-.09Zm.16-3.28,1.3.09-.1,1.31-1.3-.1Zm1,47,.05-.71-.72-.06,0,.72Zm.32-3.18.07-.9-.9-.06-.07.9Zm.64-50.27.11-1.48L362,91.61l-.11,1.48Zm.15-3.33.1-1.3-1.3-.1-.1,1.31Zm.16-3.33,0-.36-.71-.77-.36,0-.08,1.08Zm.27,61.9.05-.72-.72-.05-.05.72Zm.32-3.18.07-.9-.9-.07-.07.9Zm.29-3.23.06-.9-1-.08-.07.9Zm1.21,5,.07-.9L365,146l-.07.9Zm.33-3.18.08-1.08-1.08-.08-.08,1.08Zm1.22,4.88.06-.81-.9-.07-.06.81Zm.27-3.14.08-1-1-.07-.08,1Zm.33-3.19.07-1-1.21-.09-.07,1Zm1.21,5,.08-1.08-1.08-.08-.07,1.08Zm.33-3.18.09-1.22-1.22-.08-.08,1.21Zm1.18,4.78.07-.9-1-.07-.06.9Zm.32-3.05.09-1.21-1.22-.09-.09,1.22Zm.28-3.27.08-1-1.22-.09-.07,1Zm1.26,5.06.09-1.21-1.22-.09-.09,1.21Zm.28-3.28.09-1.21-1.21-.09-.09,1.21Zm1.23,4.79.07-1-1.21-.09-.07,1Zm.27-3.05.09-1.21-1.21-.09-.09,1.21Zm.2-3.28.07-1-1.21-.09-.08,1Zm1.34,5.06.09-1.21-1.21-.09-.09,1.21Zm.2-3.28.09-1.21-1.22-.09-.09,1.21Zm1.31,4.8.08-1-1.21-.09-.08,1Zm.19-3.06.08-1.22-1.21-.08-.09,1.21Zm.24-3.28.07-1-1.21-.09-.08,1Zm1.29,5.06.09-1.21-1.21-.09-.09,1.21Zm.25-3.28.09-1.21-1.22-.09-.09,1.21Zm7.7-7.06L380.26,130l-.9,12.12,6.77,8Zm-6.43,11.85.07-1-1.21-.09-.07,1Zm.22-3,.09-1.21-1.21-.09-.09,1.21Zm1.54,1.78.09-1.21-1.21-.09-.09,1.22Zm1.52,1.52.07-1-1.21-.09-.07,1Z" fill="#d83232"/>
    <path d="M388.63,141.92l31.82-60.44,18,2.35L449.22,94.6l15.39,66.91L447,159.21l-9.84-10.64-.73-3.46-19.83-2.58-6,11.94-14.69-1.92Zm15.53,1,6-11.94,25.72,3.36,2.7,13.07,13.54,1.76-14.7-63.87-16-2.09-30.59,58Zm5.5,9.76.43-.9-.53-.07.16-1.25,1,.13,1.66-3.33-.67-.09.18-1.34L413,146l.48-.94.09-.71.27,0,.63-1.32-.72-.1-.18,1.39-1.6-.21.21-1.61-1.57-.2.21-1.57-1.61-.21.21-1.6,1.38.18.18-1.39-1.38-.18-.18,1.39-1.34-.18-.37.77-.1.76-.27,0-.81,1.67.72.09-.18,1.34-1.2-.15-.56,1.11-.07.58.29.53.05-.35,1.25.16-.17,1.25-.58-.07.74,1.27.11-.8,1.25.16-.16,1.25-.94-.12,2.54,4.51Zm-2.32-9,1.29.17-.17,1.3-1.29-.17Zm.37-3.22,1.39.18-.18,1.39-1.39-.18Zm.61,8.21,1.25.16-.17,1.3-1.25-.16Zm.37-3.18,1.34.18-.17,1.3-1.34-.18Zm.71-8.17.17-1.34h-.09l-.62,1.28Zm-.29,5,1.34.17-.17,1.34-1.34-.17Zm1,5,1.29.17-.17,1.29-1.29-.17Zm.92-11.6.12-.89-.94-.13-.12.9Zm-.55,8.38,1.39.18-.19,1.38-1.38-.18Zm1.68-3.15.18-1.34-1.34-.17-.18,1.34Zm.27-3.41.12-.94-.94-.12-.12.93Zm1.13,5.23.18-1.34-1.34-.17-.18,1.34Zm.15-8.79.1-.8-1.07-.14-.1.8Zm.07,5.37.12-.94-.89-.12-.12.94Zm1.37-3.5.13-1-1.07-.14-.14,1Zm0,5.27.12-.89-.94-.12-.11.89Zm12.72-45.58,6.36,27.86-19.7-2.57Zm-11.28,42.23.14-1.08-1.12-.14-.14,1.07Zm.48-3.35.11-.8-1.07-.14-.11.8Zm.91,5.21.14-1.07-1.07-.14-.14,1.07Zm.83-19.88.21-1.61,1.52.2.2-1.56-1.56-.21.18-1.38-.72,1.31.54.07-.21,1.57-1.11-.15-.61,1.19,0,.36Zm-.3,16.54.13-1-1.07-.14-.13,1Zm1,5,.11-.89-1.07-.14-.11.89Zm.5-3.11.14-1.07-1.12-.15-.14,1.07Zm.43-3.35.11-.8-1.07-.14-.11.8Zm.5-19.79.18-1.42-.89-.12-.72,1.36Zm.46,25,.14-1.07-1.07-.14-.14,1.07Zm.55-19.91.21-1.57-1.57-.2-.2,1.56Zm-.07,16.57.13-1-1.07-.14-.13,1Zm.45-19.84.19-1.43-1.43-.18-.18,1.42Zm-.89-5,.12-.93-.48.89Zm1.27,1.72.17-1.3-1.29-.17-.17,1.3Zm.19,28.14.12-.9-1.07-.14-.12.9Zm.14-31.37.16-1.21-.62-.08-.61,1.15Zm.32,28.25.14-1.08-1.12-.14-.14,1.07Zm.33-19.95.18-1.43-1.43-.18-.18,1.43Zm.1,16.6.11-.81-1.07-.14-.11.81Zm.28-19.86.17-1.3-1.3-.17-.17,1.3Zm.33-3.27.16-1.17-1.17-.15-.15,1.16Zm.69,8.31.19-1.43-1.43-.19-.19,1.43Zm-.34,20,.14-1.07-1.07-.14-.14,1.07Zm0-31.57.14-1.07-1.07-.14-.14,1.07Zm.64,8.31.17-1.3-1.29-.17-.17,1.3Zm-.19,19.91.13-1-1.07-.14-.13,1Zm-.11-31.49.11-.89-.36,0-.42.85Zm.68,8.31.15-1.16-1.16-.15-.15,1.16Zm.38-3.26.14-1-1.08-.14-.13,1Zm.07,31.48.12-.89-1.07-.14-.12.89Zm-.05-23.26.62-1.24-1.12-.14-.17,1.29Zm.27-11.46.12-.89-.9-.12-.11.9Zm.24,31.6.14-1.07-1.12-.14-.14,1.07Zm.49-23.28.16-1.21-1.21-.15-.16,1.2Zm-.06,19.93.11-.8-1.07-.14-.11.8Zm-.28-31.56.09-.71-.72-.1-.09.72Zm.68,8.36.14-1.07-1-.14-.14,1.07Zm.33-3.27.12-.9-.89-.11-.12.89Zm.23,31.69.14-1.08-1.07-.14-.14,1.08Zm4-19.46-1.65-7.26L427,120.77Zm-3.93-15.51.09-.71-.71-.09-.1.71Zm.37,31.62.13-1-1.07-.13-.13,1Zm0-23.29.42-.77,0-.27-1.07-.14-.14,1.08Zm.65-3.24.12-.89-.9-.12-.11.9Zm.33,31.57.12-.89-1.07-.14-.12.89ZM429,107.72l-.17-.75-.18,0-.1.71Zm1,31.75.14-1.07-1.12-.15-.14,1.07Zm.43-3.35.11-.8-1.07-.14-.11.8Zm1,5.21.14-1.07-1.07-.14-.14,1.07Zm.48-3.34.13-1-1.07-.14-.13,1Zm1,5,.12-.89L432,142l-.12.89Zm.46-3.12.13-1.07-1.11-.15-.14,1.07Zm.43-3.35.11-.81-1.08-.14-.1.81Zm1,5.21.14-1.07-1.07-.14-.14,1.07Zm.21-3.38-.22-1.07-.45-.06-.13,1Zm1.07,5.05-.2-.94-.53-.07-.12.9Zm11.67-48-8.23-8.25,14.68,64,8.27,8.34Z" fill="#d83232"/>
  </g>
  <g>
    <path d="M49,145.12a39.49,39.49,0,0,0,16.15,4.37A41.9,41.9,0,0,0,71,149.2a46.37,46.37,0,0,0,9-2.1,33.66,33.66,0,0,0,5.08-2A28.76,28.76,0,0,0,89,142.76c-.42-2.89-.74-5.22-1-6.81,0,0-.12-.85-.78-5.84h0s-.71-2.06-1-2.72A32.34,32.34,0,0,1,77.77,132a31.74,31.74,0,0,1-10.93,1.85,28.8,28.8,0,0,1-4.61-.71,17.45,17.45,0,0,1-1.88-.56,16.77,16.77,0,0,1-2.83-1.39,17.07,17.07,0,0,1-3.58-2.89,17.32,17.32,0,0,1-3.63-6.05,19.28,19.28,0,0,1-1.12-4.7c-.25-2.15-.84-7.28,2.27-12.21a17.8,17.8,0,0,1,8.34-6.76A21.61,21.61,0,0,1,66,97a33.58,33.58,0,0,1,17.13,3Q82.1,92,81,84.12a27,27,0,0,0-4.41-1.45,31.07,31.07,0,0,0-6.53-.79,43.37,43.37,0,0,0-7.2.29A36,36,0,0,0,50.1,86.08a34.31,34.31,0,0,0-6.05,4.1,32.14,32.14,0,0,0-9.49,13.61,34.7,34.7,0,0,0-1.79,16.55,34.17,34.17,0,0,0,2.5,8.95,36.07,36.07,0,0,0,11.35,14.28Z" fill="#d83232"/>
    <path d="M155.89,139.4l-15-23a26.17,26.17,0,0,0,4.34-4.2,23,23,0,0,0,3.43-5.5A21.83,21.83,0,0,0,150.48,97,18.16,18.16,0,0,0,148,88.61a26.33,26.33,0,0,0-4-5.51A26.06,26.06,0,0,0,124.19,77L99.06,78.93q2.5,32.05,5,64.12l15.64-.9L118.2,122l7.08-.57q5.92,9.62,11.87,19.23Zm-28.55-31.65-1.61.16-1.62.12-7,.5q-.66-8.13-1.31-16.26l10-.82a7.25,7.25,0,0,1,5.51,1.46,8.44,8.44,0,0,1,3,4.21,8.77,8.77,0,0,1,.34,1.79,8.3,8.3,0,0,1-.93,4.62A8.92,8.92,0,0,1,127.34,107.75Z" fill="#d83232"/>
    <path d="M182.46,73.48,167,74.14l2.75,64.12,16-.19q-1.27-30.91-2.54-61.84S182.69,74.39,182.46,73.48Z" fill="#d83232"/>
    <path d="M263.32,88.55A24.85,24.85,0,0,0,260,83.17a21.36,21.36,0,0,0-2-2,35,35,0,0,0-10.83-7.35A34.34,34.34,0,0,0,233.06,71a33.45,33.45,0,0,0-21.14,7.92,33.45,33.45,0,0,0-12,26,33.9,33.9,0,0,0,10.6,24.42,36.46,36.46,0,0,0,7.28,5,33.19,33.19,0,0,0,35.93-2.4,34,34,0,0,0,13.8-27.27,33.38,33.38,0,0,0-1.71-10.38A46.1,46.1,0,0,0,263.32,88.55ZM234,123.05a20.26,20.26,0,0,1-4.63-.55,17.11,17.11,0,0,1-2.4-.8c-.2-.08-.48-.19-.81-.34a16.77,16.77,0,0,1-2.3-1.31,18.67,18.67,0,0,1-3.8-3.6,19.53,19.53,0,0,1-4-11.73,19.25,19.25,0,0,1,2.24-9.16,17.36,17.36,0,0,1,15.43-9.18,19.68,19.68,0,0,1,10.51,3.33,17.4,17.4,0,0,1,4,4.1c.44.66.81,1.36.81,1.36s.32.62.6,1.3a24.66,24.66,0,0,1,1.71,8.67,18.92,18.92,0,0,1-7.93,14.91A18.09,18.09,0,0,1,234,123.05Z" fill="#d83232"/>
    <path d="M324.22,123.44l-26.91-1,1.62-46.87-.36-2.75-15.44-.56q-1.08,32.1-2.17,64.21c1,.2,43.08,1.81,43.08,1.81l.47-12.08S324.34,124.34,324.22,123.44Z" fill="#d83232"/>
    <path d="M380.09,127.2l-26.88-2,3.53-46.72s-.14-1.83-.22-2.74L341,74.52l-4.68,64,43.05,3.54q.44-6.08.88-12.17Z" fill="#d83232"/>
    <path d="M454.21,151.1l-14.67-64s-.72-2.18-1.09-3.26l-18-2.35L388.58,142c2.24.45,13.35,2.37,16.47,2.81q3.07-6,6.16-12l23.25,3c.39,1.94.79,3.9,1.2,5.86.49,2.34,1,4.65,1.49,6.93Zm-37.12-31.63,10.19-19.33,3,13.15,1.89,8.13Z" fill="#d83232"/>
  </g>
</svg>
